<svg width="7" height="18" viewBox="0 0 7 18" fill="none" xmlns="http://www.w3.org/2000/svg">
<path d="M1.59801 9.39773C1.59801 8.0554 1.77202 6.82138 2.12003 5.69567C2.47159 4.56641 2.9723 3.5277 3.62216 2.57954H4.73011C4.47443 2.93111 4.23473 3.36435 4.01101 3.87926C3.79084 4.39062 3.5973 4.95348 3.4304 5.56783C3.26349 6.17862 3.1321 6.81072 3.03622 7.46413C2.94389 8.11754 2.89773 8.76207 2.89773 9.39773C2.89773 10.2429 2.9794 11.1005 3.14276 11.9705C3.30611 12.8406 3.52628 13.6484 3.80327 14.3942C4.08026 15.1399 4.3892 15.7472 4.73011 16.2159H3.62216C2.9723 15.2678 2.47159 14.2308 2.12003 13.1051C1.77202 11.9759 1.59801 10.7401 1.59801 9.39773Z" fill="black"/>
</svg>
