<svg width="7" height="18" viewBox="0 0 7 18" fill="none" xmlns="http://www.w3.org/2000/svg">
<path d="M3.83523 9.39773C3.83523 10.7401 3.65945 11.9759 3.30788 13.1051C2.95987 14.2308 2.46094 15.2678 1.81108 16.2159H0.703125C0.958807 15.8643 1.19673 15.4311 1.4169 14.9162C1.64063 14.4048 1.83594 13.8437 2.00284 13.233C2.16974 12.6186 2.29936 11.9847 2.39169 11.3313C2.48757 10.6744 2.53551 10.0298 2.53551 9.39773C2.53551 8.55256 2.45384 7.69496 2.29048 6.82493C2.12713 5.9549 1.90696 5.14702 1.62997 4.40128C1.35298 3.65554 1.04403 3.04829 0.703125 2.57954H1.81108C2.46094 3.5277 2.95987 4.56641 3.30788 5.69567C3.65945 6.82138 3.83523 8.0554 3.83523 9.39773Z" fill="black"/>
</svg>
