<svg width="9" height="14" viewBox="0 0 9 14" fill="none" xmlns="http://www.w3.org/2000/svg">
<path d="M4.81534 14.1491C4.11222 14.1491 3.48544 14.0284 2.93501 13.7869C2.38814 13.5455 1.95313 13.2099 1.62997 12.7802C1.31037 12.3469 1.13636 11.8445 1.10795 11.2727H2.45028C2.47869 11.6243 2.59943 11.9279 2.8125 12.1836C3.02557 12.4357 3.30433 12.631 3.64879 12.7695C3.99325 12.908 4.375 12.9773 4.79403 12.9773C5.26278 12.9773 5.67827 12.8956 6.04048 12.7322C6.4027 12.5689 6.68679 12.3416 6.89276 12.0504C7.09872 11.7592 7.2017 11.4219 7.2017 11.0384C7.2017 10.6371 7.10227 10.2837 6.90341 9.97834C6.70455 9.66939 6.41335 9.42791 6.02983 9.25391C5.64631 9.0799 5.17756 8.9929 4.62358 8.9929H3.75V7.82102H4.62358C5.05682 7.82102 5.43679 7.7429 5.76349 7.58665C6.09375 7.4304 6.35121 7.21023 6.53587 6.92614C6.72408 6.64205 6.81818 6.30824 6.81818 5.92472C6.81818 5.5554 6.73651 5.23402 6.57315 4.96058C6.4098 4.68714 6.17898 4.47408 5.88068 4.32138C5.58594 4.16868 5.23793 4.09233 4.83665 4.09233C4.46023 4.09233 4.10511 4.16158 3.77131 4.30007C3.44105 4.43501 3.17116 4.6321 2.96165 4.89134C2.75213 5.14702 2.63849 5.45597 2.62074 5.81818H1.34233C1.36364 5.24645 1.53587 4.74574 1.85902 4.31605C2.18217 3.88281 2.60476 3.54545 3.12678 3.30398C3.65234 3.0625 4.2294 2.94176 4.85795 2.94176C5.53267 2.94176 6.11151 3.07848 6.59446 3.35192C7.07741 3.6218 7.44851 3.97869 7.70774 4.42259C7.96697 4.86648 8.09659 5.34588 8.09659 5.8608C8.09659 6.47514 7.93501 6.99893 7.61186 7.43217C7.29226 7.86541 6.85724 8.16548 6.30682 8.33239V8.41761C6.99574 8.53125 7.53374 8.82422 7.92081 9.29652C8.30788 9.76527 8.50142 10.3459 8.50142 11.0384C8.50142 11.6314 8.33984 12.1641 8.01669 12.6364C7.69709 13.1051 7.2603 13.4744 6.70632 13.7443C6.15234 14.0142 5.52202 14.1491 4.81534 14.1491Z" fill="black"/>
</svg>
