<svg width="9" height="14" viewBox="0 0 9 14" fill="none" xmlns="http://www.w3.org/2000/svg">
<path d="M1.12926 14V13.0412L4.73011 9.09943C5.1527 8.63778 5.50071 8.23651 5.77415 7.8956C6.04759 7.55114 6.25 7.22798 6.38139 6.92614C6.51634 6.62074 6.58381 6.30114 6.58381 5.96733C6.58381 5.58381 6.49148 5.25178 6.30682 4.97124C6.12571 4.6907 5.87713 4.47408 5.56108 4.32138C5.24503 4.16868 4.88991 4.09233 4.49574 4.09233C4.0767 4.09233 3.71094 4.17933 3.39844 4.35334C3.08949 4.52379 2.84979 4.76349 2.67933 5.07244C2.51243 5.38139 2.42898 5.74361 2.42898 6.15909H1.17188C1.17188 5.51989 1.31925 4.95881 1.61399 4.47585C1.90874 3.9929 2.31001 3.61648 2.81783 3.34659C3.32919 3.0767 3.9027 2.94176 4.53835 2.94176C5.17756 2.94176 5.74396 3.0767 6.23757 3.34659C6.73118 3.61648 7.11825 3.98047 7.39879 4.43857C7.67933 4.89666 7.8196 5.40625 7.8196 5.96733C7.8196 6.36861 7.7468 6.76101 7.60121 7.14453C7.45916 7.5245 7.21058 7.94886 6.85547 8.41761C6.50391 8.88281 6.01562 9.45099 5.39062 10.1222L2.94034 12.7429V12.8281H8.01136V14H1.12926Z" fill="black"/>
</svg>
