<svg width="9" height="14" viewBox="0 0 9 14" fill="none" xmlns="http://www.w3.org/2000/svg">
<path d="M4.60227 2.94176C5.04972 2.94531 5.49716 3.03054 5.9446 3.19744C6.39205 3.36435 6.80043 3.64134 7.16974 4.02841C7.53906 4.41193 7.83558 4.93572 8.0593 5.59979C8.28303 6.26385 8.39489 7.09659 8.39489 8.09801C8.39489 9.06747 8.30256 9.92862 8.1179 10.6815C7.93679 11.4308 7.67401 12.0629 7.32955 12.5778C6.98864 13.0927 6.57315 13.4833 6.0831 13.7496C5.59659 14.016 5.04616 14.1491 4.43182 14.1491C3.82102 14.1491 3.27592 14.0284 2.79652 13.7869C2.32067 13.5419 1.93004 13.2028 1.62464 12.7695C1.3228 12.3327 1.12926 11.8267 1.04403 11.2514H2.34375C2.46094 11.7521 2.69354 12.1658 3.04155 12.4925C3.39311 12.8157 3.85653 12.9773 4.43182 12.9773C5.27344 12.9773 5.9375 12.6097 6.42401 11.8746C6.91406 11.1396 7.15909 10.1009 7.15909 8.75852H7.07386C6.875 9.05682 6.63885 9.31428 6.36541 9.53089C6.09197 9.74751 5.78835 9.91442 5.45455 10.0316C5.12074 10.1488 4.76563 10.2074 4.3892 10.2074C3.7642 10.2074 3.1907 10.0529 2.66868 9.74396C2.15021 9.43146 1.73473 9.00355 1.42223 8.46023C1.11328 7.91335 0.958807 7.28835 0.958807 6.58523C0.958807 5.91761 1.10795 5.30682 1.40625 4.75284C1.7081 4.19531 2.13068 3.75142 2.67401 3.42116C3.22088 3.09091 3.86364 2.93111 4.60227 2.94176ZM4.60227 4.11364C4.15483 4.11364 3.75178 4.2255 3.39311 4.44922C3.038 4.66939 2.75568 4.96768 2.54616 5.3441C2.3402 5.71697 2.23722 6.13068 2.23722 6.58523C2.23722 7.03977 2.33665 7.45348 2.53551 7.82635C2.73793 8.19567 3.01314 8.49041 3.36115 8.71058C3.71271 8.9272 4.11222 9.03551 4.55966 9.03551C4.89702 9.03551 5.21129 8.96982 5.50249 8.83842C5.79368 8.70348 6.04759 8.5206 6.2642 8.28977C6.48438 8.0554 6.65661 7.79084 6.7809 7.49609C6.90518 7.1978 6.96733 6.88707 6.96733 6.56392C6.96733 6.13778 6.86435 5.73828 6.65838 5.36541C6.45597 4.99254 6.17543 4.6907 5.81676 4.45987C5.46165 4.22905 5.05682 4.11364 4.60227 4.11364Z" fill="black"/>
</svg>
