<svg width="10" height="14" viewBox="0 0 10 14" fill="none" xmlns="http://www.w3.org/2000/svg">
<path d="M4.6875 14.1491C3.88494 14.1491 3.20135 13.9308 2.63672 13.494C2.07209 13.0536 1.64063 12.4162 1.34233 11.5817C1.04403 10.7436 0.894886 9.73153 0.894886 8.54545C0.894886 7.36648 1.04403 6.35973 1.34233 5.52521C1.64418 4.68714 2.07741 4.04794 2.64205 3.6076C3.21023 3.16371 3.89205 2.94176 4.6875 2.94176C5.48295 2.94176 6.163 3.16371 6.72763 3.6076C7.29581 4.04794 7.72905 4.68714 8.02734 5.52521C8.32919 6.35973 8.48011 7.36648 8.48011 8.54545C8.48011 9.73153 8.33097 10.7436 8.03267 11.5817C7.73438 12.4162 7.30291 13.0536 6.73828 13.494C6.17365 13.9308 5.49006 14.1491 4.6875 14.1491ZM4.6875 12.9773C5.48295 12.9773 6.10085 12.5937 6.54119 11.8267C6.98153 11.0597 7.2017 9.96591 7.2017 8.54545C7.2017 7.60085 7.1005 6.79652 6.89808 6.13246C6.69922 5.46839 6.41158 4.96236 6.03516 4.61435C5.66229 4.26634 5.21307 4.09233 4.6875 4.09233C3.89915 4.09233 3.28303 4.48118 2.83913 5.25888C2.39524 6.03303 2.1733 7.12855 2.1733 8.54545C2.1733 9.49006 2.27273 10.2926 2.47159 10.9531C2.67045 11.6136 2.95632 12.1161 3.32919 12.4606C3.70561 12.805 4.15838 12.9773 4.6875 12.9773Z" fill="black"/>
</svg>
