<svg width="9" height="14" viewBox="0 0 9 14" fill="none" xmlns="http://www.w3.org/2000/svg">
<path d="M4.75142 14.1491C4.30398 14.142 3.85653 14.0568 3.40909 13.8935C2.96165 13.7301 2.55327 13.4549 2.18395 13.0678C1.81463 12.6772 1.51811 12.1499 1.29439 11.4858C1.07067 10.8182 0.958807 9.98011 0.958807 8.97159C0.958807 8.00568 1.04936 7.14986 1.23047 6.40412C1.41158 5.65483 1.67436 5.0245 2.01882 4.51314C2.36328 3.99822 2.77876 3.6076 3.26527 3.34126C3.75533 3.07493 4.30753 2.94176 4.92188 2.94176C5.53267 2.94176 6.07599 3.06428 6.55185 3.3093C7.03125 3.55078 7.42188 3.88814 7.72372 4.32138C8.02557 4.75462 8.22088 5.25355 8.30966 5.81818H7.00994C6.8892 5.32812 6.65483 4.92152 6.30682 4.59837C5.95881 4.27521 5.49716 4.11364 4.92188 4.11364C4.0767 4.11364 3.41087 4.48118 2.92436 5.21626C2.44141 5.95135 2.19815 6.98295 2.1946 8.31108H2.27983C2.47869 8.00923 2.71484 7.75178 2.98828 7.53871C3.26527 7.32209 3.57067 7.15518 3.90447 7.038C4.23828 6.92081 4.59162 6.86222 4.96449 6.86222C5.58949 6.86222 6.16122 7.01847 6.67969 7.33097C7.19815 7.63991 7.61364 8.06783 7.92614 8.6147C8.23864 9.15803 8.39489 9.78125 8.39489 10.4844C8.39489 11.1591 8.24396 11.777 7.94212 12.3381C7.64027 12.8956 7.21591 13.3395 6.66903 13.6697C6.12571 13.9964 5.48651 14.1562 4.75142 14.1491ZM4.75142 12.9773C5.19886 12.9773 5.60014 12.8654 5.95526 12.6417C6.31392 12.418 6.59624 12.1179 6.8022 11.7415C7.01172 11.3651 7.11648 10.946 7.11648 10.4844C7.11648 10.0334 7.01527 9.62322 6.81286 9.25391C6.61399 8.88104 6.33878 8.58452 5.98722 8.36435C5.6392 8.14418 5.24148 8.03409 4.79403 8.03409C4.45668 8.03409 4.1424 8.10156 3.85121 8.23651C3.56001 8.3679 3.30433 8.54901 3.08416 8.77983C2.86754 9.01065 2.69709 9.27521 2.5728 9.57351C2.44851 9.86825 2.38636 10.179 2.38636 10.5057C2.38636 10.9389 2.48757 11.3437 2.68999 11.7202C2.89595 12.0966 3.17649 12.4002 3.53161 12.631C3.89027 12.8619 4.29688 12.9773 4.75142 12.9773Z" fill="black"/>
</svg>
