<svg width="9" height="14" viewBox="0 0 9 14" fill="none" xmlns="http://www.w3.org/2000/svg">
<path d="M4.62358 14.1491C3.89205 14.1491 3.24574 14.0195 2.68466 13.7603C2.12713 13.4975 1.69212 13.1371 1.37962 12.679C1.06712 12.2173 0.912642 11.6918 0.916193 11.1023C0.912642 10.6406 1.0032 10.2145 1.18786 9.82386C1.37251 9.42969 1.62464 9.10121 1.94425 8.83842C2.2674 8.57209 2.62784 8.40341 3.02557 8.33239V8.26847C2.50355 8.13352 2.08807 7.84055 1.77912 7.38956C1.47017 6.93501 1.31747 6.41832 1.32102 5.83949C1.31747 5.28551 1.45774 4.79013 1.74183 4.35334C2.02592 3.91655 2.41655 3.57209 2.91371 3.31996C3.41442 3.06783 3.98438 2.94176 4.62358 2.94176C5.25568 2.94176 5.82031 3.06783 6.31747 3.31996C6.81463 3.57209 7.20526 3.91655 7.48935 4.35334C7.77699 4.79013 7.92259 5.28551 7.92614 5.83949C7.92259 6.41832 7.76456 6.93501 7.45206 7.38956C7.14311 7.84055 6.73295 8.13352 6.22159 8.26847V8.33239C6.61577 8.40341 6.97088 8.57209 7.28693 8.83842C7.60298 9.10121 7.85511 9.42969 8.04332 9.82386C8.23153 10.2145 8.32741 10.6406 8.33097 11.1023C8.32741 11.6918 8.16761 12.2173 7.85156 12.679C7.53906 13.1371 7.10405 13.4975 6.54652 13.7603C5.99254 14.0195 5.35156 14.1491 4.62358 14.1491ZM4.62358 12.9773C5.11719 12.9773 5.54332 12.8974 5.90199 12.7376C6.26065 12.5778 6.53764 12.3523 6.73295 12.0611C6.92827 11.7699 7.0277 11.429 7.03125 11.0384C7.0277 10.6264 6.92116 10.2624 6.71165 9.94638C6.50213 9.63033 6.21626 9.38175 5.85405 9.20064C5.49538 9.01953 5.08523 8.92898 4.62358 8.92898C4.15838 8.92898 3.7429 9.01953 3.37713 9.20064C3.01491 9.38175 2.72905 9.63033 2.51953 9.94638C2.31357 10.2624 2.21236 10.6264 2.21591 11.0384C2.21236 11.429 2.30646 11.7699 2.49822 12.0611C2.69354 12.3523 2.9723 12.5778 3.33452 12.7376C3.69673 12.8974 4.12642 12.9773 4.62358 12.9773ZM4.62358 7.79972C5.0142 7.79972 5.36044 7.72159 5.66229 7.56534C5.96768 7.40909 6.20739 7.1907 6.38139 6.91016C6.5554 6.62962 6.64418 6.30114 6.64773 5.92472C6.64418 5.5554 6.55717 5.23402 6.38672 4.96058C6.21626 4.68359 5.98011 4.47053 5.67827 4.32138C5.37642 4.16868 5.02486 4.09233 4.62358 4.09233C4.2152 4.09233 3.85831 4.16868 3.55291 4.32138C3.24751 4.47053 3.01136 4.68359 2.84446 4.96058C2.67756 5.23402 2.59588 5.5554 2.59943 5.92472C2.59588 6.30114 2.67933 6.62962 2.84979 6.91016C3.02379 7.1907 3.26349 7.40909 3.56889 7.56534C3.87429 7.72159 4.22585 7.79972 4.62358 7.79972Z" fill="black"/>
</svg>
