<svg width="9" height="14" viewBox="0 0 9 14" fill="none" xmlns="http://www.w3.org/2000/svg">
<path d="M4.53835 14.1491C3.91335 14.1491 3.3505 14.0249 2.84979 13.7763C2.34908 13.5277 1.9478 13.1868 1.64595 12.7536C1.34411 12.3203 1.17898 11.8267 1.15057 11.2727H2.42898C2.47869 11.7663 2.70241 12.1747 3.10014 12.4979C3.50142 12.8175 3.98082 12.9773 4.53835 12.9773C4.9858 12.9773 5.38352 12.8725 5.73153 12.663C6.0831 12.4535 6.35831 12.1658 6.55717 11.8001C6.75959 11.4308 6.8608 11.0135 6.8608 10.5483C6.8608 10.0724 6.75604 9.64808 6.54652 9.27521C6.34055 8.89879 6.05646 8.60227 5.69425 8.38565C5.33203 8.16903 4.91832 8.05895 4.45312 8.0554C4.11932 8.05185 3.77663 8.10334 3.42507 8.20987C3.07351 8.31285 2.78409 8.44602 2.55682 8.60938L1.32102 8.46023L1.98153 3.09091H7.64915V4.26278H3.08949L2.70597 7.48011H2.76989C2.99361 7.30256 3.27415 7.15518 3.61151 7.038C3.94886 6.92081 4.30043 6.86222 4.66619 6.86222C5.33381 6.86222 5.92862 7.02202 6.45064 7.34162C6.97621 7.65767 7.38814 8.09091 7.68643 8.64133C7.98828 9.19176 8.1392 9.82031 8.1392 10.527C8.1392 11.223 7.98295 11.8445 7.67045 12.3913C7.36151 12.9347 6.93537 13.3643 6.39205 13.6804C5.84872 13.9929 5.23082 14.1491 4.53835 14.1491Z" fill="black"/>
</svg>
