<?xml version="1.0" encoding="UTF-8"?>
<!-- Generator: Blender, SVG Export for Grease Pencil - v2.1 -->
<!DOCTYPE svg PUBLIC "-//W3C//DTD SVG 1.1//EN" "http://www.w3.org/Graphics/SVG/1.1/DTD/svg11.dtd">
<svg version="1.1" x="0px" y="0px" xmlns="http://www.w3.org/2000/svg" width="1920.000000px" height="1080.000000px" viewBox="0 0 1920.000000 1080.000000">
	<g id="blender_frame.1">
		<g id="blender_object.Stroke.1.uuid_0x0">
			<g id="layer.Fills.uuid_0x1" />
			<g id="layer.Lines.uuid_0x2">
				<path d="M665.0511,581.36145L664.6753,581.141L664.26373,580.99817L663.8323,580.9383L663.3974,580.96387L662.9758,581.0737L662.58386,581.2637L662.2364,581.52655L661.94696,581.8521L661.72656,582.22784L661.5837,582.6394L661.5239,583.0709L661.54944,583.50586L661.6593,583.92737L661.84924,584.31934L662.1121,584.66675L662.4376,584.95624L665.84985,587.43695L668.4346,591.76984L673.9495,607.4215L681.4315,631.8845L687.6704,647.72815L689.82697,654.7894L690.0497,655.2886L690.3875,655.71826L690.82,656.0525L691.321,656.271L692.2858,656.5569L692.75464,656.64246L693.23083,656.6262L693.6926,656.5087L694.1187,656.29553L694.4896,655.9964L694.7882,655.62506L695.0008,655.1986L695.11755,654.73663L696.8585,642.397L704.95264,612.608L713.8558,588.66345L722.09827,569.81635L731.5045,542.2972L735.20685,533.28766L741.64746,513.7337L746.7867,495.22003L760.16614,456.24695L766.1311,442.28967L769.168,438.70715L772.12555,437.3426L780.6492,435.07477L796.12506,433.41357L833.4718,433.22815L862.03906,434.43597L902.6975,437.65637L1002.3136,437.64392L1023.9151,435.97864L1047.9485,435.02368L1103.782,434.91394L1154.8226,429.85974L1184.2983,428.77765L1184.73,428.71912L1185.1421,428.57745L1185.5184,428.35815L1185.8448,428.06958L1186.1086,427.72296L1186.2998,427.33148L1186.4109,426.91022L1186.4376,426.47546L1186.379,426.04376L1186.2373,425.63184L1186.0182,425.25543L1185.7295,424.92902L1185.3828,424.66516L1184.9913,424.47406L1184.5702,424.36304L1184.1354,424.33624L1154.5905,425.42084L1103.6654,430.46967L1047.898,430.57935L1023.6969,431.5393L1002.2271,433.19946L902.9607,433.21887L862.3493,430.0022L833.6071,428.78546L795.98956,428.96973L780.0053,430.67383L770.7973,433.09692L766.8597,434.8775L766.09564,435.4583L762.5242,439.67126L756.0473,454.5752L742.5614,493.8401L737.4093,512.39435L731.06555,531.6724L727.368,540.6704L717.9892,568.12024L709.75867,586.9399L700.7518,611.15344L692.533,641.36597L691.71545,652.5569L693.5171,652.56244L691.8954,646.34595L685.65607,630.50085L678.18604,606.07697L672.55255,590.0835L669.43353,584.7689L668.8317,584.1099z" fill="#000000" stroke="none" fill-opacity="0.600000203" fill-rule="nonzero" />
			</g>
		</g>
	</g>
</svg>
